<svg xmlns="http://www.w3.org/2000/svg" width="606" height="606" viewBox="0 0 606 606">
  <path id="Exclusion_12" data-name="Exclusion 12" d="M303,606a305.242,305.242,0,0,1-61.065-6.156A301.342,301.342,0,0,1,133.59,554.253,303.881,303.881,0,0,1,23.811,420.942,301.473,301.473,0,0,1,6.156,364.066a305.953,305.953,0,0,1,0-122.13A301.343,301.343,0,0,1,51.748,133.59,303.885,303.885,0,0,1,185.059,23.811,301.476,301.476,0,0,1,241.936,6.156a305.953,305.953,0,0,1,122.13,0A301.34,301.34,0,0,1,472.411,51.748,303.884,303.884,0,0,1,582.189,185.059a301.478,301.478,0,0,1,17.655,56.876,305.958,305.958,0,0,1,0,122.13,301.339,301.339,0,0,1-45.591,108.345,303.88,303.88,0,0,1-133.31,109.778,301.475,301.475,0,0,1-56.876,17.655A305.241,305.241,0,0,1,303,606ZM303,78.83C179.393,78.83,78.83,179.393,78.83,303S179.393,527.172,303,527.172,527.172,426.609,527.172,303,426.609,78.83,303,78.83Z" fill="#004797" opacity="0.1" style="mix-blend-mode: darken;isolation: isolate"/>
</svg>
